<?xml version="1.0" encoding="utf-8"?>
<!-- Generator: Adobe Illustrator 25.3.1, SVG Export Plug-In . SVG Version: 6.00 Build 0)  -->
<svg version="1.1" id="Layer_1" xmlns="http://www.w3.org/2000/svg" xmlns:xlink="http://www.w3.org/1999/xlink" x="0px" y="0px"
	 viewBox="0 0 1024 1024" style="enable-background:new 0 0 1024 1024;" xml:space="preserve">
<style type="text/css">
	.st0{fill:#F37174;}
</style>
<g>
	<path class="st0" d="M719.64,43.86C656.15,15.67,585.88,0,511.94,0C399.73,0,295.95,36.08,211.57,97.26l68.81,149.18L719.64,43.86z
		"/>
	<path class="st0" d="M109.29,195.53C69.78,245.69,39.45,303.4,20.81,366.14l137.85-63.57L109.29,195.53z"/>
	<path class="st0" d="M852.94,129.98L336.52,368.14l296.11,641.96c224.67-54.26,391.56-256.59,391.56-497.9
		C1024.19,360.27,958.02,223.79,852.94,129.98z M903.05,520.39c-3.34,1.32-6.79,2.37-9.96,3.46c9.9,19.65,18.35,39.26,29.38,57.28
		c1.95,3.19,24.28,35.48,26.77,38.34c0,0-62.44,10.51-130.45,45.18c-68.01,34.67-118.93,85.39-118.93,85.39
		c-5.1-16.04-26.54-53.41-32.62-64.56c-6.93-12.72-13.14-25.83-19.88-39.21c-9.66,2.71-18.96,5.69-28.45,7.87
		c-8.55,1.97-17.26,3.59-25.98,4.49c-35.51,3.68-61.75-10.69-79.57-41.36c-18.37-31.61-15.48-61.05,11.74-88.39
		c14.12-14.19,31.36-25.25,47.11-37.83c15.16-12.11,30.76-23.75,45.17-36.7c15.92-14.31,27.48-31.84,36.42-51.61
		c6.54-14.46,15.4-28.3,25.36-40.7c23.91-29.8,59.3-39.47,95.77-27.97c19.59,6.18,36.7,16.9,52.54,29.59
		c7.26,5.82,15.04,9.1,24.14,9.16c15.01,0.09,30.03-0.05,45.04-0.25c17.39-0.22,34.16,1.9,48.91,12.21
		c25.33,17.7,39.78,61.39,14.46,93.91C944.94,498.04,925.67,511.46,903.05,520.39z"/>
	<path class="st0" d="M-0.19,523.42C5.63,794.29,221.74,1013.38,491.43,1024L214.8,424.27L-0.19,523.42z"/>
</g>
</svg>
